<svg width="512" height="512" viewBox="0 0 512 512" fill="none" xmlns="http://www.w3.org/2000/svg">
  <defs>
    <linearGradient id="bg" x1="56" y1="48" x2="448" y2="464" gradientUnits="userSpaceOnUse">
      <stop stop-color="#6366F1"/>
      <stop offset="1" stop-color="#3B82F6"/>
    </linearGradient>
    <linearGradient id="gloss" x1="112" y1="72" x2="336" y2="264" gradientUnits="userSpaceOnUse">
      <stop stop-color="white" stop-opacity="0.22"/>
      <stop offset="1" stop-color="white" stop-opacity="0"/>
    </linearGradient>
  </defs>

  <rect x="24" y="24" width="464" height="464" rx="112" fill="url(#bg)"/>
  <rect x="40" y="40" width="432" height="432" rx="96" fill="none" stroke="white" stroke-opacity="0.14" stroke-width="2"/>
  <path d="M80 88C80 70.3269 94.3269 56 112 56H280C190 116 138 188 124 272C113 337 94 398 56 432V112C56 94.3269 70.3269 80 88 80H80V88Z" fill="url(#gloss)"/>
  <path d="M152 96H206L388 256L206 416H152V334L286 256L152 178V96Z" fill="white"/>
</svg>
